<svg viewBox="0 0 600 692" xmlns="http://www.w3.org/2000/svg">
  <g fill="#FFF" fill-rule="nonzero">
    <path d="M300 691.624a3.201 3.201 0 0 1-1.605-.43L2.041 520.093a3.208 3.208 0 0 1-1.606-2.78V175.114c0-1.147.612-2.207 1.606-2.78l296.354-171.1a3.204 3.204 0 0 1 3.21 0l296.355 171.1a3.208 3.208 0 0 1 1.605 2.78v342.2a3.208 3.208 0 0 1-1.605 2.78l-296.355 171.1a3.208 3.208 0 0 1-1.605.43zM6.856 515.46L300 684.707 593.144 515.46V176.967L300 7.72 6.856 176.967V515.46z"/>
    <path d="M300 520.11a3.21 3.21 0 0 1-2.78-1.605L149.1 261.955a3.212 3.212 0 0 1 2.78-4.815h296.238a3.21 3.21 0 0 1 2.78 4.815L302.78 518.505a3.21 3.21 0 0 1-2.78 1.605zM157.44 263.56L300 510.48l142.559-246.92H157.44z"/>
    <path d="M596.354 520.16H3.645a3.212 3.212 0 0 1-2.78-4.815L297.22 2.045a3.21 3.21 0 0 1 5.56 0l296.354 513.3a3.208 3.208 0 0 1-2.78 4.815zm-587.15-6.42h581.59L300 10.07 9.205 513.74z"/>
    <path d="M151.877 263.56c-.561 0-1.112-.147-1.597-.428L2.045 177.897a3.21 3.21 0 1 1 3.2-5.565l148.235 85.236a3.21 3.21 0 0 1-1.603 5.992zm296.244 0a3.21 3.21 0 0 1-1.603-5.993l148.236-85.236a3.21 3.21 0 1 1 3.2 5.566l-148.237 85.235a3.183 3.183 0 0 1-1.596.428zM300 689.332a3.21 3.21 0 0 1-3.21-3.21v-169.27a3.21 3.21 0 0 1 6.42 0v169.27a3.21 3.21 0 0 1-3.21 3.21z"/>
    <path d="M596.354 176.399H3.645a1.285 1.285 0 1 1 0-2.57h592.709a1.284 1.284 0 1 1 0 2.57z"/>
    <path d="M300.001 689.698c-.46 0-.884-.244-1.113-.642L2.533 175.756a1.284 1.284 0 1 1 2.225-1.283l296.354 513.3a1.283 1.283 0 0 1-1.11 1.925z"/>
    <path d="M299.94 689.698a1.283 1.283 0 0 1-1.111-1.926l296.354-513.3a1.284 1.284 0 1 1 2.225 1.284l-296.355 513.3c-.23.398-.654.643-1.113.642z"/>
    <path d="M448.144 432.948H151.88a1.283 1.283 0 0 1-1.112-1.926l148.12-256.55c.458-.795 1.764-.795 2.224 0l148.005 256.354a1.283 1.283 0 0 1-.973 2.122zm-294.04-2.569h291.79L300 177.682 154.104 430.379z"/>
    <path d="M3.646 518.597a1.283 1.283 0 0 1-.644-2.396l148.235-85.65a1.281 1.281 0 0 1 1.755.471 1.284 1.284 0 0 1-.47 1.754L4.287 518.425a1.276 1.276 0 0 1-.641.172zm592.707 0c-.218 0-.438-.055-.64-.172l-148.237-85.65a1.284 1.284 0 0 1 .31-2.353c.33-.088.68-.041.975.13l148.235 85.65a1.283 1.283 0 0 1-.643 2.395zM300 176.4a1.284 1.284 0 0 1-1.284-1.285V4.014a1.283 1.283 0 1 1 2.568 0v171.1A1.284 1.284 0 0 1 300 176.4z"/>
  </g>
</svg>
