<?xml version="1.0" standalone="no"?>
<!DOCTYPE svg PUBLIC "-//W3C//DTD SVG 20010904//EN"
 "http://www.w3.org/TR/2001/REC-SVG-20010904/DTD/svg10.dtd">
<svg version="1.0" xmlns="http://www.w3.org/2000/svg"
 width="521.000000pt" height="521.000000pt" viewBox="0 0 521.000000 521.000000"
 preserveAspectRatio="xMidYMid meet">
<metadata>
Created by potrace 1.11, written by Peter Selinger 2001-2013
</metadata>
<g transform="translate(0.000000,521.000000) scale(0.100000,-0.100000)"
fill="#000000" stroke="none">
<path d="M2260 5014 c-184 -106 -346 -199 -360 -206 -14 -7 -36 -20 -50 -29
-23 -15 -189 -110 -435 -249 -256 -145 -609 -347 -690 -395 -49 -29 -110 -64
-135 -77 -25 -14 -62 -35 -82 -47 -21 -11 -53 -30 -72 -40 -19 -11 -53 -31
-75 -46 l-41 -25 0 -1298 0 -1299 1140 -652 1140 -651 43 23 c23 14 145 83
270 156 126 72 230 131 232 131 2 0 32 17 66 38 35 22 84 50 109 64 241 134
1547 885 1552 893 4 5 8 591 8 1301 0 1021 -3 1294 -12 1302 -22 17 -1170 672
-1179 672 -5 0 -9 5 -9 10 0 6 -4 10 -9 10 -5 0 -191 104 -413 231 -222 127
-423 243 -448 257 -25 13 -82 47 -128 73 -45 27 -84 49 -85 48 -1 -1 -153 -88
-337 -195z m330 -509 l0 -605 -351 0 c-300 0 -350 2 -346 14 3 8 61 108 128
223 67 114 135 233 152 263 16 30 34 61 40 68 5 7 19 30 31 51 35 65 341 590
344 591 1 0 2 -272 2 -605z m-81 573 c-10 -19 -344 -594 -627 -1080 l-57 -98
-699 0 c-385 0 -696 3 -692 8 10 10 2069 1189 2079 1191 4 0 2 -9 -4 -21z
m433 -533 c326 -560 368 -633 368 -640 0 -3 -157 -5 -350 -5 l-350 0 0 602 c0
352 4 598 9 593 5 -6 150 -253 323 -550z m779 -36 c569 -325 1038 -595 1043
-600 6 -5 -284 -9 -690 -9 l-699 0 -330 567 c-337 578 -368 633 -361 633 2 0
469 -266 1037 -591z m-1940 -681 c-149 -262 -311 -533 -318 -535 -6 -2 -962
536 -1023 576 -10 7 215 10 678 10 l693 1 -30 -52z m779 15 c-13 -21 -90 -155
-173 -298 -83 -143 -152 -262 -154 -265 -6 -6 -713 -7 -713 0 0 3 9 16 20 30
11 14 20 28 20 33 0 4 20 40 43 80 24 39 69 115 99 167 30 52 81 139 112 193
l57 97 356 0 355 0 -22 -37z m823 -55 c30 -51 64 -109 75 -128 10 -19 65 -113
120 -207 55 -95 97 -174 94 -176 -18 -9 -706 -1 -709 8 -2 6 -75 134 -164 285
-88 151 -165 283 -170 293 -9 16 10 17 345 17 l355 0 54 -92z m1362 71 c-22
-12 -164 -92 -315 -179 -151 -86 -295 -168 -320 -182 -25 -14 -85 -48 -133
-77 -49 -28 -90 -51 -92 -51 -1 0 -34 -18 -71 -40 -38 -22 -72 -40 -75 -40 -5
0 -277 458 -346 583 -2 4 310 7 694 7 l698 0 -40 -21z m-2109 -51 c17 -29 55
-93 84 -143 29 -49 62 -108 75 -130 13 -22 51 -87 84 -144 34 -57 59 -106 55
-110 -8 -8 -674 -8 -674 0 0 6 78 140 283 492 28 48 54 87 57 87 3 0 20 -24
36 -52z m-1800 -222 c230 -132 459 -262 508 -290 49 -28 89 -55 89 -59 -1 -15
-337 -587 -346 -587 -4 0 -11 8 -14 18 -4 9 -32 60 -63 112 -84 141 -201 341
-272 465 -57 100 -218 375 -263 450 -56 93 -79 138 -68 134 5 -2 198 -112 429
-243z m3955 227 c-5 -10 -78 -137 -163 -283 -379 -653 -513 -880 -518 -880 -7
0 -340 570 -342 585 -1 6 104 70 233 143 264 151 333 190 369 209 14 8 113 65
220 127 107 63 199 114 203 115 4 0 3 -7 -2 -16z m-4228 -310 c102 -175 194
-334 205 -353 12 -19 34 -57 50 -85 16 -27 74 -129 130 -225 56 -96 108 -186
116 -199 12 -22 -5 -54 -276 -520 -324 -554 -410 -701 -412 -701 -1 0 -1 540
-1 1200 0 660 1 1200 2 1200 1 0 85 -143 186 -317z m4263 -883 c0 -660 -3
-1196 -7 -1192 -6 6 -282 477 -341 582 -14 25 -62 106 -106 181 -44 75 -91
156 -105 180 -14 24 -52 90 -85 147 l-60 103 132 224 c72 124 136 233 141 242
6 10 21 36 33 58 12 22 31 54 41 72 11 17 94 160 186 317 92 157 168 286 169
286 1 0 2 -540 2 -1200z m-2636 597 c0 -15 -325 -567 -332 -564 -9 2 -337 565
-333 569 8 7 665 2 665 -5z m844 -92 c32 -55 112 -192 177 -304 117 -202 119
-205 102 -230 -9 -14 -63 -106 -121 -206 -58 -99 -136 -233 -173 -297 l-69
-117 -350 0 -350 0 -71 122 c-39 67 -95 163 -124 212 -29 50 -82 140 -118 202
l-66 112 109 187 c61 103 110 188 110 190 0 2 89 153 125 209 12 19 23 20 386
20 l374 -1 59 -99z m646 99 c0 -1 -62 -106 -137 -235 -75 -129 -151 -259 -168
-291 l-30 -56 -21 31 c-43 66 -314 535 -314 543 0 5 151 9 335 9 184 0 335 0
335 -1z m-2044 -300 c68 -117 132 -228 144 -249 11 -20 27 -47 36 -59 14 -23
8 -36 -159 -322 -96 -165 -178 -298 -183 -298 -5 1 -86 135 -182 298 l-173
296 178 304 177 305 19 -32 c11 -18 75 -127 143 -243z m2278 -47 l167 -288
-45 -75 c-26 -41 -46 -76 -46 -78 0 -2 -34 -62 -77 -133 -42 -70 -85 -144 -96
-163 -11 -19 -35 -63 -55 -97 l-36 -62 -48 81 c-26 45 -48 82 -48 83 0 1 -58
102 -130 224 l-130 222 177 303 c148 253 179 301 189 287 6 -9 86 -146 178
-304z m876 -1510 c0 -5 -12 0 -27 11 -16 10 -50 32 -78 47 -27 15 -90 50 -140
78 -49 27 -102 58 -117 68 -14 11 -29 19 -32 19 -3 0 -29 14 -58 32 -29 17
-62 36 -73 42 -11 6 -134 76 -272 155 l-252 144 22 41 c12 23 25 43 30 44 4 2
7 8 7 13 0 5 19 42 43 82 24 39 70 117 102 172 32 55 71 121 86 148 16 26 29
50 29 53 0 3 8 16 17 28 17 23 21 17 365 -573 191 -328 348 -600 348 -604z
m-3649 1146 c37 -68 260 -449 293 -501 15 -24 26 -45 24 -47 -6 -5 -198 -116
-503 -290 -171 -98 -326 -187 -345 -198 -19 -11 -60 -33 -90 -50 -30 -17 -68
-39 -84 -51 -26 -18 -29 -18 -23 -2 13 33 689 1186 696 1186 3 0 18 -21 32
-47z m802 -115 c52 -90 104 -179 114 -198 11 -19 41 -71 68 -115 26 -44 51
-87 56 -97 8 -15 -17 -16 -336 -17 -190 0 -345 2 -345 6 0 11 335 583 342 583
3 0 49 -73 101 -162z m1451 109 c16 -28 55 -95 86 -147 98 -163 220 -377 220
-383 0 -3 -156 -6 -346 -6 l-345 0 19 32 c10 18 87 150 171 295 84 144 156
262 160 262 3 0 19 -24 35 -53z m-1049 -799 c77 -133 155 -267 173 -297 18
-29 30 -57 26 -60 -3 -3 -161 -6 -351 -6 l-345 -1 -17 26 c-10 14 -53 87 -97
163 -43 76 -83 146 -89 155 -5 10 -40 70 -77 133 -38 64 -68 119 -68 123 0 3
159 6 353 6 l352 0 140 -242z m581 220 c-20 -33 -145 -247 -169 -288 -63 -114
-152 -260 -158 -260 -7 0 -329 552 -329 563 0 4 151 7 335 7 l335 0 -14 -22z
m774 15 c0 -5 -78 -141 -173 -303 l-173 -295 -352 -1 c-317 0 -352 1 -347 15
4 9 81 145 173 303 l167 287 353 1 c193 0 352 -3 352 -7z m-2070 -270 c85
-146 162 -280 172 -297 l16 -32 -689 0 c-379 0 -688 4 -686 9 1 5 29 23 62 41
33 18 103 58 155 88 52 31 223 129 380 218 354 202 338 193 380 218 19 12 40
22 45 22 6 0 80 -120 165 -267z m2285 167 c96 -55 238 -136 317 -181 290 -165
538 -309 538 -312 0 -2 -313 -3 -695 -3 -382 0 -695 2 -695 3 0 1 17 31 38 65
21 35 52 88 69 118 16 30 51 91 78 135 73 123 110 186 135 233 13 23 28 42 33
42 5 0 87 -45 182 -100z m-2069 -549 c6 0 17 -13 25 -28 8 -15 106 -185 218
-378 112 -192 214 -368 227 -390 12 -22 70 -121 128 -220 58 -98 104 -181 102
-182 -2 -2 -185 101 -407 228 -222 127 -422 241 -444 254 -22 12 -206 118
-409 234 -202 116 -370 211 -371 211 -2 0 -33 18 -69 40 -36 22 -70 40 -76 40
-5 0 -10 4 -10 9 0 5 -6 11 -13 13 -18 4 -297 162 -297 168 0 4 1357 5 1396 1z
m719 0 c7 -1 10 -207 10 -596 0 -327 -3 -591 -6 -587 -6 6 -182 305 -231 392
-11 19 -58 100 -105 180 -47 80 -102 174 -123 210 -21 36 -81 139 -134 229
-52 90 -94 167 -92 170 3 5 640 7 681 2z m747 -12 c-2 -7 -43 -81 -92 -165
-49 -83 -97 -166 -108 -185 -115 -201 -474 -814 -480 -821 -6 -6 -8 1161 -3
1182 0 3 155 5 344 4 283 -1 341 -3 339 -15z m1433 12 c8 -1 -70 -48 -330
-196 -82 -47 -261 -149 -290 -165 -25 -15 -460 -263 -560 -320 -16 -10 -228
-130 -469 -269 -241 -138 -440 -250 -442 -248 -2 1 78 142 178 312 99 171 213
366 253 435 40 69 109 188 154 265 44 77 85 147 89 155 5 8 18 20 29 25 12 6
263 10 699 9 373 -1 684 -2 689 -3z"/>
</g>
</svg>
